# AST/ASF file generated using VICON BodyLanguage
# -----------------------------------------------
:version 1.10
:name VICON
:units
  mass 1.0
  length 0.45
  angle deg
:documentation
   .ast/.asf automatically generated from VICON data using
   VICON BodyBuilder and BodyLanguage model FoxedUp or BRILLIANT.MOD
:root
   order TX TY TZ RX RY RZ
   axis XYZ
   position 0 0 0  
   orientation 0 0 0 
:bonedata
  begin
     id 1 
     name lhipjoint
     direction 0.547975 -0.797114 0.253638 
     length 2.36201 
     axis 0 0 0  XYZ
  end
  begin
     id 2 
     name lfemur
     direction 0.34202 -0.939693 0  
     length 7.69075  
     axis 0 0 20  XYZ
    dof rx ry rz
    limits (-160.0 20.0)
           (-70.0 70.0)
           (-60.0 70.0)
  end
  begin
     id 3 
     name ltibia
     direction 0.34202 -0.939693 0   
     length 7.91399   
     axis 0 0 20   XYZ
    dof rx
    limits (-10.0 170.0)
  end
  begin
     id 4 
     name lfoot
     direction 0.0705293 -0.193778 0.978507   
     length 2.13618   
     axis -90 7.62852e-016 20   XYZ
    dof rx rz
    limits (-45.0 90.0)
           (-70.0 20.0)
  end
  begin
     id 5 
     name ltoes
     direction 1.53592e-011 -4.21925e-011 1   
     length 1.07518   
     axis -90 7.62852e-016 20   XYZ
    dof rx
    limits (-90.0 20.0)
  end
  begin
     id 6 
     name rhipjoint
     direction -0.57 -0.782963 0.249136   
     length 2.4047  
     axis 0 0 0  XYZ 
  end
  begin
     id 7 
     name rfemur
     direction -0.34202 -0.939693 0   
     length 7.51486   
     axis 0 0 -20   XYZ
    dof rx ry rz
    limits (-160.0 20.0)
           (-70.0 70.0)
           (-70.0 60.0)
  end
  begin
     id 8 
     name rtibia
     direction -0.34202 -0.939693 0   
     length 8.08317   
     axis 0 0 -20   XYZ
    dof rx
    limits (-10.0 170.0)
 end
 begin
     id 9 
     name rfoot
     direction -0.104954 -0.281256 0.953876   
     length 2.30343  
     axis -90 -7.62852e-016 -20   XYZ
    dof rx rz
    limits (-45.0 90.0)
           (-20.0 70.0)
  end
  begin
     id 10 
     name rtoes
     direction -1.53556e-011 -4.21922e-011 1   
     length 1.14803   
     axis -90 -7.62852e-016 -20   XYZ
    dof rx
    limits (-90.0 20.0)
  end
  begin
     id 11 
     name lowerback
     direction -0.0152855 0.99353 -0.11254   
     length 2.05311   
     axis 0 0 0   XYZ
    dof rx ry rz
    limits (-20.0 45.0)
           (-30.0 30.0)
           (-30.0 30.0)
  end
  begin
     id 12 
     name upperback
     direction -0.00157509 0.999443 -0.033332   
     length 2.06353   
     axis 0 0 0   XYZ
    dof rx ry rz
    limits (-20.0 45.0)
           (-30.0 30.0)
           (-30.0 30.0)
  end
  begin
     id 13 
     name thorax
     direction 0.00577788 0.999804 0.0189484   
     length 2.08472   
     axis 0 0 0   XYZ
    dof rx ry rz
    limits (-20.0 45.0)
           (-30.0 30.0)
           (-30.0 30.0)
  end
  begin
     id 14 
     name lowerneck
     direction -1.09301e-005 0.994719 0.10264   
     length 1.76249   
     axis 0 0 0   XYZ
    dof rx ry rz
    limits (-20.0 45.0)
           (-30.0 30.0)
           (-30.0 30.0)
  end
  begin
     id 15 
     name upperneck
     direction 0.0495018 0.988526 -0.142706   
     length 1.77897   
     axis 0 0 0   XYZ
    dof rx ry rz
    limits (-20.0 45.0)
           (-30.0 30.0)
           (-30.0 30.0)
  end
  begin
     id 16
     name head
     direction 0.0142736 0.998114 -0.0597101  
     length 1.78934  
     axis 0 0 0   XYZ
    dof rx ry rz
    limits (-20.0 45.0)
           (-30.0 30.0)
           (-30.0 30.0)
  end
  begin
     id 17 
     name lclavicle
     direction 0.918111 0.396107 -0.0130883  
     length 3.37276  
     axis 0 0 0   XYZ
    dof ry rz
    limits (-20.0 10.0)
           (0.0 20.0)
  end
  begin
     id 18 
     name lhumerus
     direction 1 -4.48975e-011 -3.26108e-027   
     length 5.34298   
     axis 180 -30 -90   XYZ
    dof rx ry rz
    limits (-60.0 90.0)
           (-90.0 90.0)
           (-90.0 90.0)
  end
  begin
     id 19
     name lradius
     direction 1 -4.48964e-011 -8.84413e-028   
     length 3.67262   
     axis 180 -30 -90   XYZ
    dof rx
    limits (-10.0 170.0)
  end
  begin
     id 20
     name lwrist
     direction 1 -4.48991e-011 -1.24264e-027   
     length 1.83631   
     axis -2.17013e-015 90 90   XYZ
    dof ry
    limits (-180.0 0.0)
 end
  begin
     id 21 
     name lhand
     direction 1 -4.48855e-011 -2.48528e-027   
     length 0.599298   
     axis 1.58582e-015 90 90   XYZ
    dof rx rz
    limits (-90.0 90.0)
           (-45.0 45.0)
  end
  begin
     id 22 
     name lfingers
     direction 1 -4.48811e-011 -4.97056e-027   
     length 0.48317   
     axis 3.17164e-015 90 90   XYZ
    dof rx
    limits (0.0 90.0)
  end
  begin
     id 23
     name lthumb
     direction 0.707107 -6.34882e-011 0.707107   
     length 0.693738   
     axis -90 45 2.85299e-015   XYZ
    dof rx rz
    limits (-45.0 45.0)
           (-45.0 45.0)
  end
  begin
     id 24 
     name rclavicle
     direction -0.920511 0.384752 -0.0680135   
     length 3.43787  
     axis 0 0 0   XYZ 
    dof ry rz
    limits (-10.0 20.0)
           (-20.0 0.0)
  end
  begin
     id 25 
     name rhumerus
     direction -0.999976 -0.00330524 0.00603274  
     length 5.5498   
     axis 180 30 90   XYZ
    dof rx ry rz
    limits (-90.0 60.0)
           (-90.0 90.0)
           (-90.0 90.0)
  end
  begin
     id 26 
     name rradius
     direction -1 -4.48967e-011 8.62438e-027   
     length 3.69401   
     axis 180 30 90   XYZ
    dof rx
    limits (-10.0 170.0)
  end
  begin
     id 27 
     name rwrist
     direction -1 -4.4897e-011 9.54866e-027   
     length 1.84701   
     axis -7.69462e-015 -90 -90   XYZ
    dof ry
    limits (-180.0 0.0)
  end
  begin
     id 28
     name rhand
     direction -1 -4.48982e-011 1.90973e-026   
     length 0.638113   
     axis -1.21857e-014 -90 -90   XYZ
    dof rx rz
    limits (-90.0 90.0)
           (-45.0 45.0)
  end
  begin
     id 29
     name rfingers
     direction -1 -4.48936e-011 3.81946e-026   
     length 0.514463   
     axis -2.43714e-014 -90 -90   XYZ
    dof rx
    limits (0.0 90.0)
  end
  begin
     id 30
     name rthumb
     direction -0.707107 -6.34942e-011 0.707107   
     length 0.738669   
     axis -90 -45 -2.85299e-015   XYZ
    dof rx rz
    limits (-45.0 45.0)
           (-45.0 45.0)
  end
:hierarchy
  begin
    root lhipjoint rhipjoint lowerback
    lhipjoint lfemur
    lfemur ltibia
    ltibia lfoot
    lfoot ltoes
    rhipjoint rfemur
    rfemur rtibia
    rtibia rfoot
    rfoot rtoes
    lowerback upperback
    upperback thorax
    thorax lowerneck lclavicle rclavicle
    lowerneck upperneck
    upperneck head
    lclavicle lhumerus
    lhumerus lradius
    lradius lwrist
    lwrist lhand lthumb
    lhand lfingers
    rclavicle rhumerus
    rhumerus rradius
    rradius rwrist
    rwrist rhand rthumb
    rhand rfingers
  end

#!OML:ASF F:\twosubjects\two\Thursday\Session 1\Rory.ASF
:FULLY-SPECIFIED
:DEGREES
34
root 7.36466 10.5277 11.7434 168.692 -4.1744 179.293
lowerback 40.4393 4.65505 3.23119
upperback 17.7246 -0.144835 0.560586
thorax 0.339706 -2.77123 -1.02982
lowerneck -15.0503 -3.21014 -4.96261
upperneck -8.07229 -4.53125 5.81705
head 0.224955 -2.58396 2.50967
rclavicle -1.30204e-014 4.96962e-017
rhumerus 39.7883 29.5581 -47.1155
rradius 67.0896
rwrist 7.52791
rhand -10.0969 9.80583
rfingers 7.12502
rthumb 15.8904 -19.5622
lclavicle -1.30204e-014 4.96962e-017
lhumerus 40.233 -32.7132 46.4151
lradius 63.7678
lwrist -25.3525
lhand -20.078 12.8785
lfingers 7.12502
lthumb 6.26454 42.7658
rfemur -78.8452 -20.1428 4.78128
rtibia 89.2832
rfoot 9.10813 -4.50131
rtoes -2.12077
lfemur -74.5749 23.9043 -5.02178
ltibia 81.7056
lfoot 12.8611 -5.98449
ltoes -8.77051
35
root 7.36205 10.5222 11.7397 168.731 -4.19141 179.456
lowerback 40.2494 4.54121 3.49005
upperback 17.7823 -0.197557 0.499822
thorax 0.468769 -2.77074 -1.2169
lowerneck -14.8462 -3.16505 -5.136
upperneck -8.23415 -4.44573 6.13857
head 0.148874 -2.53882 2.65959
rclavicle -1.23246e-014 -4.47266e-016
rhumerus 39.8123 29.4942 -47.2456
rradius 67.061
rwrist 7.63446
rhand -9.78561 10.1408
rfingers 7.12502
rthumb 16.1901 -19.2031
lclavicle -1.23246e-014 -4.47266e-016
lhumerus 40.3877 -32.6984 46.3011
lradius 63.6643
lwrist -25.527
lhand -19.8555 14.3668
lfingers 7.12502
lthumb 6.47935 44.2477
rfemur -78.9089 -20.2058 4.9754
rtibia 89.308
rfoot 9.21019 -4.23305
rtoes -3.18454
lfemur -74.7005 23.8684 -4.90271
ltibia 81.7196
lfoot 12.7962 -6.09528
ltoes -9.62328
36
root 7.36203 10.5179 11.7358 168.803 -4.18191 179.445
lowerback 39.9822 4.53836 3.52647
upperback 17.9241 -0.229646 0.447189
thorax 0.706528 -2.78581 -1.29469
lowerneck -15.0027 -3.18421 -5.21111
upperneck -8.16382 -4.45376 6.45946
head 0.21117 -2.537 2.77927
rclavicle -2.23633e-015 -4.47266e-015
rhumerus 39.9806 29.3678 -47.2821
rradius 66.9735
rwrist 7.93468
rhand -9.95478 9.94067
rfingers 7.12502
rthumb 16.0272 -19.4164
lclavicle -2.23633e-015 -4.47266e-015
lhumerus 40.6679 -32.6232 46.1034
lradius 63.5271
lwrist -25.2568
lhand -20.4451 15.7485
lfingers 7.12502
lthumb 5.91013 45.6461
rfemur -79.0333 -20.2453 5.01733
rtibia 89.3326
rfoot 9.37267 -3.98916
rtoes -4.92784
lfemur -74.7906 23.8492 -4.88666
ltibia 81.7417
lfoot 12.7925 -6.09401
ltoes -9.554
37
root 7.36319 10.5177 11.7341 168.88 -4.194 179.255
lowerback 39.9232 4.61682 3.25964
upperback 17.9362 -0.227402 0.466828
thorax 0.726495 -2.80403 -1.13955
lowerneck -15.1841 -3.20884 -5.2228
upperneck -8.09356 -4.48693 6.40883
head 0.264688 -2.55342 2.75918
rclavicle -1.2424e-014 -4.91992e-015
rhumerus 40.1432 29.3942 -47.1135
rradius 66.9148
rwrist 7.93863
rhand -10.1766 9.29645
rfingers 7.12502
rthumb 15.8136 -20.0777
lclavicle -1.2424e-014 -4.91992e-015
lhumerus 40.584 -32.4685 46.2564
lradius 63.5585
lwrist -25.4222
lhand -21.2347 16.3795
lfingers 7.12502
lthumb 5.14773 46.2969
rfemur -79.1227 -20.2688 4.84647
rtibia 89.3329
rfoot 9.50605 -3.97048
rtoes -5.13893
lfemur -74.8369 23.8514 -5.10199
ltibia 81.7516
lfoot 12.7403 -6.36385
ltoes -11.5322
38
root 7.36351 10.52 11.7356 168.911 -4.19509 179.121
lowerback 40.0985 4.64845 3.06627
upperback 17.8145 -0.218129 0.477397
thorax 0.530356 -2.80522 -1.02121
lowerneck -15.1168 -3.19967 -5.21021
upperneck -8.23603 -4.49325 6.12636
head 0.196529 -2.56752 2.66287
rclavicle 1.27719e-014 -5.81445e-015
rhumerus 40.0948 29.5109 -47.0648
rradius 66.9427
rwrist 7.93071
rhand -10.2898 9.928
rfingers 7.12502
rthumb 15.7046 -19.4547
lclavicle 1.27719e-014 -5.81445e-015
lhumerus 40.387 -32.5003 46.3719
lradius 63.6463
lwrist -25.4012
lhand -21.3135 16.1926
lfingers 7.12502
lthumb 5.07161 46.1119
rfemur -79.1307 -20.2442 4.69283
rtibia 89.3156
rfoot 9.55957 -3.96007
rtoes -4.56204
lfemur -74.8486 23.8363 -5.22083
ltibia 81.7683
lfoot 12.774 -6.46666
ltoes -12.4379
